# xmcd CD database file
#
# Track frame offsets:
#	150
#	13112
#	25597
#	28757
#
# Disc length: 668 seconds
#
# Revision: 0
# Processed by: cddbd v1.5.1PL0 Copyright (c) Steve Scherf et al.
# Submitted via: CDex 1.51
#
DISCID=24029a04
DTITLE=空気公団 - 2003年6月28日
DYEAR=2003
DGENRE=JPop
TTITLE0=白のフワフワ（スタジオライブ）
TTITLE1=電信（スタジオライブ）
TTITLE2=旅をしませんか（失敗）
TTITLE3=旅をしませんか（スタジオライブ）
EXTD=YEAR: 2003
EXTT0=
EXTT1=
EXTT2=
EXTT3=
PLAYORDER=
